<svg id="Capa_1" data-name="Capa 1" xmlns="http://www.w3.org/2000/svg" xmlns:xlink="http://www.w3.org/1999/xlink" viewBox="0 0 70 70"><defs><style>.cls-1,.cls-7{fill:#fff;}.cls-1,.cls-3,.cls-4{fill-rule:evenodd;}.cls-2{mask:url(#mask);}.cls-3{fill:url(#Degradado_sin_nombre_3);}.cls-4{opacity:0.05;}.cls-5{fill:#424242;}.cls-6{fill:#009bdd;}</style><mask id="mask" x="0" y="0" width="70" height="70" maskUnits="userSpaceOnUse"><g id="b"><path id="a" class="cls-1" d="M4,0H65c4,0,5,1,5,5V65c0,4-1,5-5,5H4c-3,0-4-1-4-5V5C0,1,1,0,4,0Z"/></g></mask><linearGradient id="Degradado_sin_nombre_3" y1="70" x2="70" gradientUnits="userSpaceOnUse"><stop offset="0" stop-color="#eaeaea"/><stop offset="1" stop-color="#fff"/></linearGradient></defs><g class="cls-2"><g id="Background"><path id="Color" class="cls-3" d="M0,0H70V70H0Z"/><path id="Shadow" class="cls-4" d="M13.41,27.12C12.4,27.28,0,56.56,0,56.56V70H47.08s9-30.3,9.76-29.67-3.68-2.55-3.68-2.55L56.44,33l-4.26-1.78-.87-3L49.1,29.26l-2.17-2.72L43,33.69l-3.69,3.19-.7-3.06-1.1.62-2.11.48-.43-.6-2.2,2.92-.28-3.42-2.66,4.62-1.32-4.62-1.29,2.4L15.94,25.52l-2.1,2.62Z"/></g></g><g id="Info"><g id="logo"><path class="cls-5" d="M29.86,33.82v2.8a1.27,1.27,0,0,0,1.29,1.43,1.41,1.41,0,0,0,1.37-1.5V33.82h1.31v5.36H32.65l-.09-.73a2.38,2.38,0,0,1-1.81.8c-1.28,0-2.21-1-2.21-2.62V33.82Z"/><path class="cls-5" d="M38.64,33.82h1.27v5.35H38.66l-.07-.79a2,2,0,0,1-1.73.95,2.59,2.59,0,0,1-2.76-2.84,2.6,2.6,0,0,1,2.79-2.8,1.93,1.93,0,0,1,1.7.87Zm-3.21,2.67A1.52,1.52,0,0,0,37,38.11a1.62,1.62,0,0,0,0-3.24A1.52,1.52,0,0,0,35.43,36.49Z"/><path class="cls-5" d="M46.11,31.58v7.59H44.88l-.09-.74a2,2,0,0,1-1.73.86,2.63,2.63,0,0,1-2.75-2.8A2.56,2.56,0,0,1,43,33.69a2.2,2.2,0,0,1,1.76.86v-3Zm-4.48,4.91a1.54,1.54,0,1,0,3.07,0,1.52,1.52,0,0,0-1.55-1.57A1.48,1.48,0,0,0,41.63,36.49Z"/><rect class="cls-6" x="46.67" y="30.88" width="2.43" height="9.61"/><path class="cls-6" d="M53.73,28.14c0,.91,0,1.83,0,2.74h2.7V33H53.72v4.22A1.21,1.21,0,0,0,55,38.57a2.71,2.71,0,0,0,1.17-.3l.68,2.06a5.4,5.4,0,0,1-2,.42c-2.13.07-3.52-1.13-3.52-3.57V33H49.48V30.88h1.83V28.14Z"/><path class="cls-5" d="M50,28.37a2.07,2.07,0,0,1-4.14,0A2.07,2.07,0,0,1,50,28.37Z"/><path class="cls-5" d="M13.82,41.09l8.41-2a.63.63,0,0,0,.61-.64v-9a.63.63,0,0,0-.61-.64l-8.36-1.95a.66.66,0,0,0-.46.21.74.74,0,0,0-.17.54q0,6.42-.08,12.83a.65.65,0,0,0,.17.43A.59.59,0,0,0,13.82,41.09Z"/><path class="cls-6" d="M16.46,42.74l10.9-2.41a.79.79,0,0,0,.78-.79V28.45a.78.78,0,0,0-.78-.79L16.53,25.25a.9.9,0,0,0-.59.27.83.83,0,0,0-.23.66q-.06,7.91-.1,15.82a.77.77,0,0,0,.22.53A.74.74,0,0,0,16.46,42.74Z"/><path class="cls-7" d="M27,33.46A5.73,5.73,0,0,1,26,36.79L27.25,38,25.9,39.34l-1.24-1.22a5.31,5.31,0,0,1-2.91.76,5,5,0,0,1-5.25-5.3,5,5,0,0,1,5.25-5.34A5,5,0,0,1,27,33.46Zm-8.37.16a3.26,3.26,0,0,0,3.11,3.48c2.14,0,3.17-1.94,3.1-3.7S24,30,21.73,30,18.59,31.9,18.62,33.62Z"/></g></g></svg>